<svg width="160" height="48" viewBox="0 0 160 48" fill="none" xmlns="http://www.w3.org/2000/svg">
<g clip-path="url(#clip0_106_838)">
<path d="M7.22157 16.4142V12.0327C7.22157 9.76567 7.71552 7.73842 8.70418 5.95095C9.69284 4.1199 11.0682 2.68117 12.8304 1.63485C14.6361 0.54495 16.7636 0 19.2141 0C20.7611 0 22.1365 0.239775 23.3403 0.719325C24.5871 1.19888 25.7687 1.89645 26.8868 2.81197L22.0507 8.82832C21.664 8.52315 21.2343 8.3052 20.7611 8.1744C20.3315 8.00002 19.8153 7.9128 19.2141 7.9128C18.0961 7.9128 17.2154 8.26155 16.5706 8.95912C15.9686 9.61305 15.6677 10.5286 15.6677 11.7057V16.4142H35.2686V48H26.8217V23.9346H15.6677V48H7.22157V23.9346H0V16.4142H7.22157Z" fill="#FFFCF2"/>
<path d="M42.763 48V0.71933H51.2091V48H42.763Z" fill="#FFFCF2"/>
<path d="M79.0032 48V29.3624C79.0032 27.5313 78.4228 26.1145 77.2618 25.1117C76.1445 24.0654 74.7476 23.5422 73.0713 23.5422C71.9532 23.5422 70.9431 23.7821 70.041 24.2616C69.1381 24.6976 68.429 25.3515 67.9128 26.2235C67.3974 27.0954 67.1394 28.1417 67.1394 29.3624L67.1393 48H58.6932V16.4142H67.1393V19.1546C67.8948 18.4065 68.7545 17.7764 69.7186 17.2643C71.5236 16.2616 73.5653 15.7602 75.8435 15.7602C77.9932 15.7602 79.9483 16.2616 81.7112 17.2643C83.1879 18.0681 84.408 19.1627 85.3717 20.5482C86.4136 19.1998 87.6861 18.1269 89.19 17.3297C91.0816 16.2834 93.1876 15.7602 95.5087 15.7602C97.8299 15.7602 99.9144 16.2616 101.763 17.2643C103.611 18.2234 105.073 19.6185 106.147 21.4496C107.222 23.2807 107.759 25.4605 107.759 27.9891V48H99.3125V29.3624C99.3125 27.5313 98.7328 26.1145 97.5718 25.1117C96.4545 24.0654 95.0576 23.5422 93.3813 23.5422C92.3061 23.5422 91.296 23.7821 90.351 24.2616C89.4481 24.6976 88.739 25.3515 88.2228 26.2235C87.7102 27.0907 87.4521 28.1304 87.4494 29.3427V48H79.0032Z" fill="#FFFCF2"/>
<path d="M114.606 48V16.4142H123.116V48H114.606Z" fill="#FFFCF2"/>
<path d="M144.01 39.3187L137.949 48H128.02L139.029 32.184L128.02 16.4142H138.014L144.01 25.0285L150.006 16.4142H160L148.991 32.184L160 48H150.071L144.01 39.3187Z" fill="#FFFCF2"/>
<path d="M115.454 12.8891C116.363 13.7991 117.511 14.2541 118.896 14.2541C120.326 14.2541 121.473 13.7991 122.339 12.8891C123.248 11.9357 123.703 10.7657 123.703 9.37915C123.703 8.03575 123.248 6.88743 122.339 5.9341C121.473 4.98078 120.326 4.50415 118.896 4.50415C117.511 4.50415 116.363 4.98078 115.454 5.9341C114.545 6.88743 114.09 8.03575 114.09 9.37915C114.09 10.7657 114.545 11.9357 115.454 12.8891Z" fill="#EB5E28"/>
<path d="M26.7188 12.8891C27.6276 13.7991 28.7752 14.2541 30.161 14.2541C31.5904 14.2541 32.7373 13.7991 33.6039 12.8891C34.5127 11.9357 34.9675 10.7657 34.9675 9.37915C34.9675 8.03575 34.5127 6.88743 33.6039 5.9341C32.7373 4.98078 31.5904 4.50415 30.161 4.50415C28.7752 4.50415 27.6276 4.98078 26.7188 5.9341C25.8093 6.88743 25.3545 8.03575 25.3545 9.37915C25.3545 10.7657 25.8093 11.9357 26.7188 12.8891Z" fill="#EB5E28"/>
</g>
<defs>
<clipPath id="clip0_106_838">
<rect width="160" height="48" fill="white"/>
</clipPath>
</defs>
</svg>
