<?xml version="1.0" encoding="utf-8"?>
<!-- Generator: Adobe Illustrator 16.0.0, SVG Export Plug-In . SVG Version: 6.00 Build 0)  -->
<!DOCTYPE svg PUBLIC "-//W3C//DTD SVG 1.1//EN" "http://www.w3.org/Graphics/SVG/1.1/DTD/svg11.dtd">
<svg version="1.1" id="Layer_1" xmlns="http://www.w3.org/2000/svg" xmlns:xlink="http://www.w3.org/1999/xlink" x="0px" y="0px"
	 width="16px" height="18px" viewBox="0 0 16 18" enable-background="new 0 0 16 18" xml:space="preserve">
<path fill="#ffffff" d="M15.031,12.228c-1.101-0.938-2.014-3.115-2.014-6.04c0-2.214-1.32-4.091-3.332-4.778C9.55,0.61,8.849,0,8,0
	C7.15,0,6.45,0.61,6.314,1.409C4.303,2.097,2.982,3.974,2.982,6.188c0,2.924-0.912,5.102-2.014,6.04C0.354,12.751,0,13.512,0,14.312
	C0,15.245,0.767,16,1.714,16h4.571c0,0.932,0.767,2,1.714,2s1.714-1.068,1.714-2h4.571C15.232,16,16,15.245,16,14.312
	C16,13.512,15.646,12.751,15.031,12.228z M2.027,14c0-0.311,0.137-0.606,0.375-0.809c1.531-1.303,2.325-3.445,2.325-6.848
	c0-1.861,1.381-3.375,3.272-3.375c1.891,0,3.272,1.514,3.272,3.375c0,3.402,0.794,5.545,2.325,6.848
	c0.239,0.203,0.375,0.498,0.375,0.809H2.027z"/>
</svg>
